HIERARCHY
ROOT Hip
{
	OFFSET	0.0000	0.0000	0.0000
	CHANNELS 6 Xposition Yposition Zposition Xrotation Yrotation Zrotation
	JOINT LowerSpine
	{
		OFFSET	0.0000	8.3453	-5.1292
		CHANNELS 3 Xrotation Yrotation Zrotation
		JOINT MiddleSpine
		{
			OFFSET	10.8569	0.0000	0.0000
			CHANNELS 3 Xrotation Yrotation Zrotation
			JOINT Chest
			{
				OFFSET	15.2984	0.0000	0.0000
				CHANNELS 3 Xrotation Yrotation Zrotation
				JOINT Neck
				{
					OFFSET	25.6618	-0.5986	0.0000
					CHANNELS 3 Xrotation Yrotation Zrotation
					JOINT Head
					{
						OFFSET	8.8829	0.0000	0.0000
						CHANNELS 3 Xrotation Yrotation Zrotation
						End Site
						{
							OFFSET	19.7399	0.0000	0.0000
						}
					}
				}
				JOINT RClavicle
				{
					OFFSET	23.6878	0.0000	3.1584
					CHANNELS 3 Xrotation Yrotation Zrotation
					JOINT RShoulder
					{
						OFFSET	-15.5945	-3.9480	0.9870
						CHANNELS 3 Xrotation Yrotation Zrotation
						JOINT RForearm
						{
							OFFSET	-31.3370	0.0000	0.1974
							CHANNELS 3 Xrotation Yrotation Zrotation
							JOINT RHand
							{
								OFFSET	-26.4021	0.0000	0.0000
								CHANNELS 3 Xrotation Yrotation Zrotation
								End Site
								{
									OFFSET	-15.7919	-0.9870	0.0000
								}
							}
						}
					}
				}
				JOINT LClavicle
				{
					OFFSET	23.6878	0.0000	-3.1584
					CHANNELS 3 Xrotation Yrotation Zrotation
					JOINT LShoulder
					{
						OFFSET	-15.5945	-3.9480	-0.9870
						CHANNELS 3 Xrotation Yrotation Zrotation
						JOINT LForearm
						{
							OFFSET	-31.3370	0.0000	-0.1974
							CHANNELS 3 Xrotation Yrotation Zrotation
							JOINT LHand
							{
								OFFSET	-26.4021	0.0000	0.0000
								CHANNELS 3 Xrotation Yrotation Zrotation
								End Site
								{
									OFFSET	-15.7919	-0.9870	0.0000
								}
							}
						}
					}
				}
			}
		}
	}
	JOINT RThigh
	{
		OFFSET	-8.8829	0.4481	0.0000
		CHANNELS 3 Xrotation Yrotation Zrotation
		JOINT RShin
		{
			OFFSET	43.1316	0.0000	-0.4935
			CHANNELS 3 Xrotation Yrotation Zrotation
			JOINT RFoot
			{
				OFFSET	0.0000	-44.7256	-0.4047
				CHANNELS 3 Xrotation Yrotation Zrotation
				JOINT RToe
				{
					OFFSET	0.0000	-3.9332	12.1953
					CHANNELS 3 Xrotation Yrotation Zrotation
					End Site
					{
						OFFSET	6.7725	0.0000	0.0000
					}
				}
			}
		}
	}
	JOINT LThigh
	{
		OFFSET	8.8829	0.4481	0.0000
		CHANNELS 3 Xrotation Yrotation Zrotation
		JOINT LShin
		{
			OFFSET	43.1316	0.0000	0.4935
			CHANNELS 3 Xrotation Yrotation Zrotation
			JOINT LFoot
			{
				OFFSET	0.0000	-44.7256	0.4047
				CHANNELS 3 Xrotation Yrotation Zrotation
				JOINT LToe
				{
					OFFSET	0.0000	-3.9332	-12.1953
					CHANNELS 3 Xrotation Yrotation Zrotation
					End Site
					{
						OFFSET	6.7725	0.0000	0.0000
					}
				}
			}
		}
	}
}
MOTION
Frames:	7
Frame Time: 0.0169491000
	0.0000	93.1363	0.0000	0.000000	0.000000	0.000000	-89.999990	-90.000000	0.000000	0.000000	0.000000	0.000000	0.000000	0.000000	0.000000	0.000000	0.000000	0.000000	0.000000	0.000000	0.000000	89.999990	0.000003	-89.999990	0.129889	-2.857029	4.156837	0.255388	4.965908	-5.884634	0.000000	0.000000	0.000000	-89.999990	-0.000003	-89.999990	-0.129889	2.857029	4.156894	-0.255388	-4.965908	-5.884634	0.000000	0.000000	0.000000	-89.999990	90.000000	0.000000	89.999990	-0.000003	89.999990	0.000000	0.000000	0.000000	180.000000	90.000000	0.000000	-89.999990	90.000000	0.000000	-90.000000	-0.000003	89.999990	0.000000	0.000000	0.000000	180.000000	-90.000000	0.000000
	5.1636	93.9883	-5.1445	-2.242014	1.411868	2.400160	-89.999990	-90.000000	0.000000	0.114879	0.251124	0.370757	0.380746	0.833675	1.225339	0.000000	0.000000	0.000000	0.000000	0.000000	0.000000	90.002690	0.050315	-90.676760	-14.823110	4.534068	2.260263	0.325847	5.646219	-5.891150	0.000000	0.000000	0.000000	-90.001240	-0.024495	-90.329350	-3.205359	-1.619877	2.150220	-0.354196	-5.919498	-5.894006	0.000000	0.000000	0.000000	104.491600	83.806040	170.214200	89.907620	10.270390	89.997780	-4.207853	-0.147468	-0.054619	173.056400	90.000000	0.000000	77.511080	89.422580	-159.446600	-89.979940	-2.235240	89.998090	0.360832	-0.259661	0.086804	184.328800	-90.000000	0.000000
	4.9217	93.9545	-4.9323	-2.729306	2.290004	1.993378	-89.999990	-90.000000	0.000000	0.134440	0.222321	0.349081	0.455220	0.724530	1.124626	0.000000	0.000000	0.000000	0.000000	0.000000	0.000000	90.004390	0.077273	-91.039540	-5.770643	3.611710	1.499403	0.255516	4.967147	-5.884645	0.000000	0.000000	0.000000	-90.006400	-0.106271	-91.429970	-1.498998	-3.404091	3.627742	-0.362409	-5.998616	-5.894859	0.000000	0.000000	0.000000	104.939700	84.739590	170.924500	89.915240	9.431108	89.997340	-3.845114	0.398713	0.163661	172.326600	90.000000	0.000000	-75.930990	89.631560	-5.324864	-89.981430	-2.068810	89.998210	0.160688	0.244467	-0.078101	185.351800	-90.000000	0.000000
	4.6832	93.9175	-4.8152	-3.232855	3.235521	1.510148	-89.999990	-90.000000	0.000000	0.154596	0.189724	0.307561	0.499142	0.658588	1.041347	0.000000	0.000000	0.000000	0.000000	0.000000	0.000000	90.005810	0.098113	-91.320080	3.670242	2.578354	0.757118	0.196225	4.393571	-5.879807	0.000000	0.000000	0.000000	-90.011090	-0.165187	-92.223770	1.154231	-5.242350	4.966501	-0.371622	-6.087338	-5.895829	0.000000	0.000000	0.000000	104.412500	85.699460	172.398000	89.920750	8.822496	89.997080	-3.441906	1.173638	0.462746	171.599100	90.000000	0.000000	-94.058750	88.586440	13.141820	-89.978940	-2.347012	89.998020	-0.069737	0.789973	-0.254727	186.913600	-90.000000	0.000000
	4.5731	93.9029	-4.7513	-3.571249	4.024406	1.260976	-89.999990	-90.000000	0.000000	0.156973	0.184911	0.291417	0.524693	0.624007	0.972525	0.000000	0.000000	0.000000	0.000000	0.000000	0.000000	90.007040	0.114973	-91.547130	9.421618	1.558902	0.412726	0.163266	4.074340	-5.877374	0.000000	0.000000	0.000000	-90.014780	-0.205358	-92.765600	2.995367	-6.537740	6.025024	-0.384809	-6.214295	-5.897242	0.000000	0.000000	0.000000	104.236900	86.223730	173.438000	89.928380	7.976740	89.996820	-3.060542	1.567191	0.603803	171.274200	90.000000	0.000000	-96.464130	87.973390	15.635100	-89.975880	-2.689105	89.997810	-0.149873	1.160290	-0.371490	187.730600	-90.000000	0.000000
	4.5782	93.8983	-4.7163	-3.738428	4.671262	1.209248	-89.999990	-90.000000	0.000000	0.157226	0.183312	0.275696	0.549054	0.608120	0.922142	0.000000	0.000000	0.000000	0.000000	0.000000	0.000000	90.008160	0.129649	-91.744850	11.152590	0.755851	0.596013	0.140641	3.855045	-5.875809	0.000000	0.000000	0.000000	-90.016990	-0.227694	-93.067050	3.639112	-7.596076	6.628878	-0.361310	-5.988029	-5.894744	0.000000	0.000000	0.000000	104.500900	86.405170	173.931900	89.937040	7.015462	89.996670	-2.808223	1.453537	0.552691	171.408600	90.000000	0.000000	-96.486890	87.755790	15.593890	-89.973260	-2.980669	89.997650	-0.006682	0.952802	-0.301812	187.718500	-90.000000	0.000000
	4.5763	93.8805	-4.7069	-3.818697	5.308573	1.114592	-89.999990	-90.000000	0.000000	0.168600	0.180290	0.255923	0.586117	0.601182	0.901008	0.000000	0.000000	0.000000	0.000000	0.000000	0.000000	90.009390	0.144897	-91.950300	11.698060	-0.048450	1.021568	0.131117	3.762705	-5.875176	0.000000	0.000000	0.000000	-90.017530	-0.232998	-93.138650	3.978599	-8.853049	6.769925	-0.292931	-5.328590	-5.888002	0.000000	0.000000	0.000000	105.141800	86.638950	173.710300	89.941260	6.547565	89.996650	-2.798839	0.932298	0.356909	171.762300	90.000000	0.000000	-95.478720	87.509640	14.407060	-89.970210	-3.321020	89.997470	0.380450	0.326264	-0.103764	187.313600	-90.000000	0.000000
